# File created by Blade
# Date/Time:  Wed Jan 21 17:05:57 2015
# Frame Rate: 120.000 fps
#------------------------------------------------------
:FULLY-SPECIFIED
:DEGREES
130
root 19.756902 34.718802 -16.755991 -166.165523 -1.587935 -179.863125
Spine 8.080728 1.602365 -2.630398
Head 1.308773 -4.898987 5.181404
LeftShoulder 2.385553 -39.122396 16.091483
LeftArm 18.904453 9.195131 -5.890516
LeftForeArm 0.687542 0.000000 -1.094212
LeftHand -6.031489 0.000000 8.186432
LeftHandThumb1 -26.253704 0.000000 33.147579
RightShoulder -1.306979 -0.359129 -12.429073
RightArm 20.743978 37.136214 8.353830
RightForeArm -19.655183 -0.000000 6.878242
RightHand -10.105682 -0.000000 -12.234887
RightHandThumb1 -24.326973 -0.000000 -32.862282
LeftUpLeg -33.630374 17.513999 -2.629908
LeftLeg 28.250688 -0.000000 -0.000000
LeftFoot -29.339938 18.410474 -15.398879
LeftToeBase 18.398692 -0.000000 -0.000000
RightUpLeg -34.223511 -18.613648 4.216305
RightLeg 29.579750 -0.000000 -0.000000
RightFoot -30.005589 -25.366649 20.132308
RightToeBase 12.624186 -0.000000 -0.000000
131
root 19.782401 34.595637 -16.572999 -165.622347 -1.594490 -179.848805
Spine 8.452800 1.728472 -2.691343
Head 1.097367 -4.966678 5.379095
LeftShoulder 2.890496 -39.404172 16.135781
LeftArm 19.699505 9.261059 -5.806198
LeftForeArm 0.807883 -0.000000 -1.490637
LeftHand -6.124116 -0.000000 8.183571
LeftHandThumb1 -26.253704 0.000000 33.147579
RightShoulder -1.080426 -0.203279 -12.674421
RightArm 21.380808 37.567705 8.588784
RightForeArm -19.423807 -0.000000 6.899140
RightHand -10.238885 -0.000000 -12.701836
RightHandThumb1 -24.326973 -0.000000 -32.862282
LeftUpLeg -35.269845 17.939618 -2.989246
LeftLeg 29.562012 -0.000000 -0.000000
LeftFoot -29.685982 18.363834 -15.108043
LeftToeBase 18.327935 -0.000000 -0.000000
RightUpLeg -35.860546 -18.975202 4.680965
RightLeg 30.778420 -0.000000 -0.000000
RightFoot -29.495182 -25.348811 19.909319
RightToeBase 12.888676 -0.000000 -0.000000
132
root 19.804923 34.464377 -16.391964 -165.085847 -1.611333 -179.853652
Spine 8.820075 1.775963 -2.777544
Head 0.907155 -4.983828 5.579634
LeftShoulder 3.272954 -39.586927 16.237242
LeftArm 20.574290 9.113527 -5.759350
LeftForeArm 0.822636 -0.000000 -1.892988
LeftHand -6.068287 -0.000000 8.178436
LeftHandThumb1 -26.253704 0.000000 33.147579
RightShoulder -0.777792 -0.022220 -12.908565
RightArm 22.042727 38.046411 8.840837
RightForeArm -19.152100 -0.000000 6.909697
RightHand -10.410800 -0.000000 -13.235221
RightHandThumb1 -24.326973 -0.000000 -32.862282
LeftUpLeg -36.893767 18.272320 -3.353506
LeftLeg 30.876200 -0.000000 -0.000000
LeftFoot -29.973179 18.287282 -14.832230
LeftToeBase 18.351579 -0.000000 -0.000000
RightUpLeg -37.551786 -19.344283 5.141813
RightLeg 32.067310 -0.000000 -0.000000
RightFoot -29.355016 -25.101543 19.721199
RightToeBase 13.591039 -0.000000 -0.000000
133
root 19.827502 34.325062 -16.214133 -164.571548 -1.624050 -179.852126
Spine 9.227859 1.878338 -2.823623
Head 0.664410 -5.041894 5.723381
LeftShoulder 3.878027 -39.901573 16.237888
LeftArm 21.192659 8.957085 -5.735762
LeftForeArm 0.820745 -0.000000 -2.182400
LeftHand -6.133840 0.000000 8.214930
LeftHandThumb1 -26.253704 0.000000 33.147579
RightShoulder -0.584982 0.108706 -13.161184
RightArm 22.810865 38.590516 9.137452
RightForeArm -18.988088 0.000000 6.873722
RightHand -10.624799 -0.000000 -13.731858
RightHandThumb1 -24.326973 -0.000000 -32.862282
LeftUpLeg -38.506669 18.598391 -3.714458
LeftLeg 32.191489 -0.000000 -0.000000
LeftFoot -30.137377 18.300514 -14.527019
LeftToeBase 18.218511 -0.000000 -0.000000
RightUpLeg -39.229395 -19.703359 5.610746
RightLeg 33.392907 -0.000000 -0.000000
RightFoot -29.337304 -24.855227 19.187343
RightToeBase 15.036863 -0.000000 -0.000000
